<?xml version="1.0" encoding="UTF-8"?>
<svg id="Layer_1" xmlns="http://www.w3.org/2000/svg" viewBox="0 0 757.66 474.42">
  <defs>
    <style>
      .cls-1 {
        fill: #fff;
      }
    </style>
  </defs>
  <path class="cls-1" d="M156.87,110.49l3.39-1.23c2.16-1.03,4.75-2.8,7.78-5.32,3.03-2.52,6.06-5.42,9.09-8.71,3.03-3.29,5.65-7.68,7.86-13.18,2.21-5.5,3.31-11.27,3.31-17.34,0-15.92-7.19-29.64-21.57-41.14-14.38-11.51-34-17.26-58.87-17.26H0v220.98h114.19c29.27,0,89.9-5.45,89.9-63.18,0-44.15-46.19-53.22-47.22-53.63M71.48,58.11h26.33c5.27,0,9.58,1.55,12.92,4.66,3.34,3.11,5.01,6.94,5.01,11.51s-1.67,8.41-5.01,11.51c-3.34,3.1-7.65,4.66-12.92,4.66h-26.33v-32.34ZM120.65,170.35c-4.12,3.88-9.29,5.82-15.52,5.82h-33.66v-39.67h33.66c6.23,0,11.4,1.91,15.52,5.73,4.12,3.82,6.17,8.49,6.17,14.02s-2.06,10.23-6.17,14.11"/>
  <path class="cls-1" d="M213.68,355.1l3.39-1.23c2.16-1.03,4.75-2.8,7.78-5.32,3.03-2.52,6.06-5.42,9.09-8.71,3.03-3.29,5.65-7.68,7.86-13.18,2.21-5.5,3.31-11.28,3.31-17.34,0-15.93-7.19-29.64-21.57-41.14-14.38-11.51-34.01-17.26-58.87-17.26H57.02v220.98h113.98c29.27,0,89.9-5.45,89.9-63.18,0-44.15-46.19-53.22-47.22-53.63M128.49,302.71h26.13c5.28,0,9.58,1.55,12.93,4.66,3.34,3.11,5.01,6.95,5.01,11.52s-1.67,8.41-5.01,11.52c-3.34,3.11-7.65,4.66-12.93,4.66h-26.13v-32.36ZM177.46,414.97c-4.12,3.88-9.29,5.82-15.52,5.82h-33.45v-39.67h33.45c6.23,0,11.4,1.91,15.52,5.73,4.12,3.82,6.17,8.49,6.17,14.02s-2.06,10.23-6.17,14.11"/>
  <polygon class="cls-1" points="387.08 173.67 280.26 173.67 280.26 139 367.48 139 367.48 88.45 280.26 88.45 280.26 60.1 387.34 60.1 387.34 6.32 208.78 6.32 208.78 227.3 387.08 227.3 387.08 173.67"/>
  <polygon class="cls-1" points="569.81 6.32 569.81 60.1 628.22 60.1 628.22 227.3 699.26 227.3 699.26 60.1 757.66 60.1 757.66 6.32 569.81 6.32"/>
  <path class="cls-1" d="M489.04,170.13c-3.91,3.39-9.32,5.09-16.26,5.09s-14.15-1.9-21.65-5.7c-7.5-3.8-12.51-6.86-15.03-9.17-1.43-1.31-2.66-2.46-3.74-3.49l-42.16,40.04,2.67,2.67c2.57,2.67,6.52,5.86,11.87,9.55,5.34,3.7,11.53,7.4,18.57,11.1,7.04,3.7,15.82,6.86,26.35,9.48,10.53,2.62,21.39,3.93,32.59,3.93,27.95,0,50.19-7.24,66.73-21.73,16.54-14.49,24.81-31.95,24.81-52.39,0-11.81-2.39-22.19-7.16-31.13-4.78-8.94-10.74-15.67-17.88-20.19-7.14-4.52-14.87-8.58-23.19-12.17-7.59-3.28-14.68-5.76-21.29-7.46-.64-.16-1.28-.33-1.91-.48-7.14-1.7-13.07-3.85-17.8-6.47-4.72-2.62-7.09-5.63-7.09-9.02,0-4.11,1.65-7.5,4.93-10.17,3.29-2.67,7.96-4.01,14.02-4.01,14.43,0,23.26,6.48,27.81,11.18l42.3-40.18-.77-.89c-1.85-2.36-5.03-5.06-9.55-8.09-4.52-3.03-9.78-6.09-15.79-9.17-6.01-3.08-13.82-5.73-23.42-7.94-9.61-2.21-19.65-3.31-30.13-3.31-26.51,0-47.85,7.01-64.03,21.04-16.18,14.02-24.27,30.49-24.27,49.39,0,10.07,1.8,19.11,5.39,27.12,3.6,8.01,8.17,14.38,13.72,19.11,5.55,4.73,11.74,8.89,18.57,12.48,5.74,3.02,11.51,5.52,17.32,7.56,1.11.39,2.22.79,3.33,1.15,6.93,2.21,13.2,4.26,18.8,6.16,5.6,1.9,10.2,3.93,13.79,6.09,3.6,2.16,5.39,4.72,5.39,7.71,0,4.83-1.95,8.94-5.86,12.33"/>
  <path class="cls-1" d="M387.34,382.25c0,14.59-11.77,26.44-26.36,26.55-14.74.11-26.75-11.81-26.75-26.55v-131.24h-71.53v127.9c0,52.75,42.76,95.51,95.51,95.51h4.48c52.75,0,95.51-42.76,95.51-95.51v-127.9h-70.86v131.24Z"/>
  <polygon class="cls-1" points="580.37 326.17 533.53 251.01 461.91 251.01 544.63 393.09 544.63 471.99 616.11 471.99 616.11 393.09 698.82 251.01 627.21 251.01 580.37 326.17"/>
  <path class="cls-1" d="M697.94,322.23c0-6.55,5.22-11.81,11.81-11.81s11.81,5.22,11.81,11.76-5.22,11.76-11.81,11.76-11.81-5.06-11.81-11.71ZM720.03,322.18c0-5.96-4.36-10.32-10.27-10.32s-10.22,4.42-10.22,10.38,4.52,10.27,10.22,10.27,10.27-4.31,10.27-10.32ZM705.82,315.85h3.99c2.66,0,4.42,1.17,4.42,3.57v.05c0,1.86-1.17,2.87-2.87,3.19l3.57,5.43h-1.97l-3.41-5.16h-1.86v5.16h-1.86v-12.24ZM709.81,321.6c1.7,0,2.55-.69,2.55-2.08v-.05c0-1.54-.91-2.08-2.55-2.08h-2.13v4.2h2.13Z"/>
</svg>